<svg xmlns="http://www.w3.org/2000/svg" viewBox="0 0 24 24" aria-hidden="true">
  <path
    fill="currentColor"
    fill-rule="evenodd"
    d="M4.82 1.86L5.28 1.63 5.96 1.63 7.1 1.4 8.24 1.63 8.92 1.86 9.38 2.08 10.06 2.54 10.52 3 10.97 3.45 11.66 4.59 11.89 5.73 12.11 6.64 12.11 7.33 11.66 8.92 12.34 9.61 13.48 10.75 14.39 11.66 18.04 11.2 18.95 11.89 19.41 12.34 20.09 13.03 20.78 13.71 21.23 14.17 21.69 14.62 22.14 15.08 18.04 19.86 17.58 20.32 16.67 19.41 15.99 18.72 15.31 18.04 14.62 17.36 14.17 16.9 13.71 16.45 12.8 15.53 11.89 14.62 10.97 13.71 10.06 12.8 7.78 11.89 6.64 12.11 5.5 11.89 4.59 11.66 3.68 11.2 3.22 10.75 2.54 10.06 2.08 9.38 1.63 8.24 1.4 7.1 1.4 6.42 1.63 5.73Z M7.67 5.05A1.71 1.71 0 1 0 4.25 5.05 1.71 1.71 0 1 0 7.67 5.05Z"
  />
  <path
    fill="none"
    stroke="currentColor"
    stroke-linecap="round"
    stroke-width="2.2"
    d="M6.4 18.27L17.68 4.52"
  />
</svg>
